<svg width="45" height="48" viewBox="0 0 45 48" fill="none" xmlns="http://www.w3.org/2000/svg">
<path d="M8.95775 23.0662C7.56078 23.0662 6.65812 22.7008 6.24978 21.9701C5.86293 21.2394 6.04561 20.2722 6.79782 19.0687L13.3098 8.72041C13.8041 7.90372 14.4811 7.25896 15.3408 6.78614C16.222 6.29183 17.1354 6.04468 18.081 6.04468H34.5867C35.9837 6.04468 36.9078 6.44228 37.3591 7.23747C37.8105 8.03267 37.5956 8.97831 36.7144 10.0744L36.0696 10.8803C35.7688 11.2457 35.4141 11.5573 35.0058 11.8152C34.5975 12.0731 34.1569 12.2021 33.6841 12.2021H26.1404C25.6676 12.2021 25.356 12.0731 25.2055 11.8152C25.0766 11.5573 25.1518 11.2349 25.4312 10.8481L26.8174 8.84936C27.3977 8.01118 27.172 7.59209 26.1404 7.59209C25.1518 7.59209 24.3888 8.01118 23.8516 8.84936L16.7915 20.2293C16.2542 21.0889 16.4799 21.5188 17.4685 21.5188C18.4141 21.5188 19.1771 21.0997 19.7574 20.2615L21.1758 18.2305C21.4552 17.8437 21.7991 17.5213 22.2074 17.2634C22.6373 17.0055 23.0886 16.8765 23.5614 16.8765H31.105C31.5779 16.8765 31.8787 17.0055 32.0077 17.2634C32.1581 17.4998 32.0937 17.8222 31.8143 18.2305L30.2991 20.3905C29.7403 21.1856 29.0418 21.8304 28.2036 22.3247C27.3655 22.819 26.4736 23.0662 25.5279 23.0662H8.95775Z" fill="#FF5900"/>
<path fill-rule="evenodd" clip-rule="evenodd" d="M0.941619 24.8588L0.909528 24.7982C-1.05424 21.0888 0.617038 17.556 1.6739 15.865L1.67883 15.8571L8.17287 5.53735C9.22532 3.81933 10.6726 2.46092 12.4073 1.50202C14.1223 0.544433 16.0394 0 18.0829 0H34.5886C36.9183 0 40.5949 0.689494 42.6179 4.25372L37.361 7.23736C36.9097 6.44216 35.9855 6.04457 34.5886 6.04457H18.0829C17.1372 6.04457 16.2238 6.29172 15.3427 6.78603C14.483 7.25885 13.806 7.9036 13.3117 8.72029L6.79968 19.0686C6.04747 20.2721 5.86479 21.2393 6.25164 21.97C6.65999 22.7007 7.56264 23.0661 8.95961 23.0661H25.5298C25.9481 23.0661 26.3558 23.0177 26.7531 22.921C27.2539 22.7991 27.7381 22.6003 28.2055 22.3246C28.3176 22.2585 28.4271 22.1898 28.5341 22.1183C29.2279 21.6552 29.8169 21.0792 30.301 20.3903L31.8161 18.2304C32.0955 17.8221 32.16 17.4997 32.0096 17.2633C31.8806 17.0054 31.5797 16.8764 31.1069 16.8764H23.5633C23.2737 16.8764 22.9923 16.9248 22.7188 17.0215C22.5735 17.0729 22.4305 17.1379 22.2897 17.2167C22.2628 17.2317 22.236 17.2472 22.2093 17.2633C21.9671 17.4162 21.7477 17.5918 21.5509 17.7901C21.4158 17.9262 21.2914 18.073 21.1777 18.2304L19.7592 20.2614C19.4154 20.758 19.0075 21.1075 18.5354 21.3099C18.5328 21.311 18.5303 21.3121 18.5278 21.3131C18.2052 21.4501 17.8527 21.5187 17.4704 21.5187C16.4817 21.5187 16.2561 21.0888 16.7934 20.2291L23.8534 8.84924C24.2082 8.29582 24.6613 7.9251 25.2128 7.73708C25.2135 7.73687 25.2141 7.73665 25.2148 7.73643C25.498 7.64013 25.8072 7.59197 26.1423 7.59197C27.1739 7.59197 27.3996 8.01106 26.8193 8.84924L25.4331 10.848C25.1537 11.2348 25.0785 11.5572 25.2074 11.8151C25.2766 11.9337 25.3799 12.0251 25.5173 12.0891C25.6786 12.1644 25.8869 12.202 26.1423 12.202H33.6859C33.9413 12.202 34.1872 12.1644 34.4238 12.0891C34.444 12.0827 34.4641 12.076 34.4842 12.069C34.5192 12.0569 34.554 12.0439 34.5886 12.03C34.7085 11.982 34.826 11.924 34.941 11.8559C34.9633 11.8427 34.9855 11.8291 35.0077 11.8151C35.416 11.5572 35.7706 11.2456 36.0715 10.8802L36.7163 10.0743C37.5974 8.97819 37.8123 8.03256 37.361 7.23736L42.6179 4.25372C44.9029 8.27962 42.9045 12.0208 41.4329 13.8545C41.431 13.8568 41.4291 13.8592 41.4272 13.8615L40.7647 14.6897L40.7375 14.7228C40.0193 15.5948 39.1763 16.3315 38.2354 16.9257L38.1034 16.7167C38.1034 16.7167 38.1034 16.7167 38.1034 16.7167L38.2354 16.9257C38.2008 16.9476 38.1661 16.9692 38.1312 16.9905C38.3108 19.2686 37.1815 21.093 36.8048 21.6437L36.7848 21.6728L35.2466 23.8656C34.1925 25.3657 32.8544 26.6004 31.2761 27.5312C29.5359 28.5574 27.5878 29.1106 25.5298 29.1106H8.95961C6.90168 29.1106 3.03214 28.5997 0.975078 24.9186L0.941619 24.8588Z" fill="#FF5900"/>
<path d="M7.94323 41.9558C6.91162 41.9558 6.66446 41.5045 7.20176 40.6018L20.9673 18.5512C21.5045 17.6486 22.289 17.1973 23.3206 17.1973H30.8642C31.8958 17.1973 32.143 17.6486 31.6057 18.5512L28.4464 23.5803C27.9306 24.483 28.1777 24.9343 29.1879 24.9343H35.0551C36.9249 24.9343 38.1177 25.4286 38.6335 26.4172C39.1708 27.3844 38.9236 28.6739 37.892 30.2858L32.2827 39.2801C31.7884 40.0968 31.1114 40.7523 30.2517 41.2466C29.392 41.7194 28.4894 41.9558 27.5437 41.9558H7.94323ZM18.8073 39.1189C18.27 39.9786 18.4957 40.4084 19.4843 40.4084C20.4729 40.4084 21.2359 39.9893 21.7732 39.1511L28.8332 27.7712C29.3705 26.9116 29.1341 26.4817 28.124 26.4817C27.1569 26.4817 26.4047 26.9008 25.8674 27.739L18.8073 39.1189Z" fill="#FF5900"/>
<path fill-rule="evenodd" clip-rule="evenodd" d="M2.04311 37.4551L15.8168 15.3914C17.4248 12.7398 20.1405 11.1526 23.3233 11.1526H30.8669C31.4907 11.1526 32.4545 11.2109 33.5053 11.5818C34.6136 11.973 36.1489 12.845 37.1277 14.6324C38.0755 16.3632 38.0121 18.061 37.7888 19.1574C40.0042 19.6135 42.4805 20.7775 43.9585 23.5515C46.1268 27.5374 44.3242 31.4413 43.0072 33.5107L37.4318 42.4505C36.3894 44.1572 34.9642 45.5109 33.2674 46.4865L33.2177 46.5152L33.1674 46.5428C31.4501 47.4873 29.5496 48.0003 27.5464 48.0003H7.94592C7.32215 48.0003 6.35835 47.9419 5.30755 47.571C4.1992 47.1799 2.66395 46.3078 1.68518 44.5205C0.717568 42.7536 0.803867 41.021 1.03817 39.9276C1.26413 38.8731 1.69504 38.0398 2.0104 37.51L2.04311 37.4551ZM32.2854 39.28L37.8947 30.2857C38.9263 28.6738 39.1735 27.3843 38.6362 26.4171C38.1204 25.4285 36.9276 24.9342 35.0578 24.9342H29.1906C28.1804 24.9342 27.9333 24.4829 28.4491 23.5802L31.6084 18.5511C32.1457 17.6485 31.8985 17.1972 30.8669 17.1972H23.3233C22.2917 17.1972 21.5072 17.6485 20.9699 18.5511L7.20445 40.6017C6.66716 41.5044 6.91431 41.9557 7.94592 41.9557H27.5464C28.4921 41.9557 29.3947 41.7193 30.2544 41.2465C31.1141 40.7522 31.7911 40.0967 32.2854 39.28ZM28.8359 27.7711C29.3732 26.9114 29.1368 26.4816 28.1267 26.4816C27.746 26.4816 27.3986 26.5466 27.0845 26.6764C27.0819 26.6775 27.0793 26.6786 27.0767 26.6797C26.5963 26.8803 26.1941 27.2334 25.8701 27.7389L18.81 39.1188C18.2727 39.9785 18.4984 40.4083 19.487 40.4083C19.8791 40.4083 20.2357 40.3424 20.5568 40.2105C20.5594 40.2095 20.562 40.2084 20.5646 40.2073C21.0496 40.0062 21.4534 39.6541 21.7759 39.151L28.8359 27.7711Z" fill="#FF5900"/>
<path d="M37.912 19.6453L42.3195 12.5933L37.6602 17.1267L37.912 19.6453Z" fill="#FF5900"/>
<path d="M8.83473 23.1695C7.43776 23.1695 6.53511 22.8041 6.12676 22.0734C5.73991 21.3426 5.92259 20.3755 6.6748 19.172L13.1868 8.82368C13.6811 8.00699 14.3581 7.36224 15.2178 6.88942C16.099 6.3951 17.0124 6.14795 17.958 6.14795H34.4637C35.8607 6.14795 36.7848 6.54555 37.2361 7.34074C37.6875 8.13594 37.4725 9.08158 36.5914 10.1777L35.9466 10.9836C35.6457 11.349 35.2911 11.6606 34.8828 11.9185C34.4744 12.1764 34.0339 12.3053 33.561 12.3053H26.0174C25.5446 12.3053 25.233 12.1764 25.0825 11.9185C24.9536 11.6606 25.0288 11.3382 25.3082 10.9514L26.6944 8.95263C27.2747 8.11445 27.049 7.69536 26.0174 7.69536C25.0288 7.69536 24.2658 8.11445 23.7285 8.95263L16.6685 20.3325C16.1312 21.1922 16.3569 21.622 17.3455 21.622C18.2911 21.622 19.0541 21.203 19.6344 20.3648L21.0528 18.3338C21.3322 17.9469 21.6761 17.6246 22.0844 17.3667C22.5143 17.1088 22.9656 16.9798 23.4384 16.9798H30.982C31.4548 16.9798 31.7557 17.1088 31.8847 17.3667C32.0351 17.6031 31.9706 17.9255 31.6912 18.3338L30.1761 20.4937C29.6173 21.2889 28.9188 21.9337 28.0806 22.428C27.2424 22.9223 26.3505 23.1695 25.4049 23.1695H8.83473Z" fill="#1F1F21"/>
<path fill-rule="evenodd" clip-rule="evenodd" d="M2.58992 23.9992L2.56852 23.9587C1.13039 21.2423 2.30547 18.5647 3.26078 17.0362L3.26407 17.0309L9.76324 6.70301C10.6297 5.28475 11.8207 4.16369 13.264 3.36668C14.7009 2.56358 16.2835 2.11816 17.9612 2.11816H34.4669C36.4857 2.11816 39.2448 2.71036 40.7439 5.35158C42.4181 8.30147 41.0128 11.1114 39.7385 12.6983C39.7374 12.6997 39.7363 12.7011 39.7352 12.7024L39.0786 13.5232L39.0604 13.5452C38.4814 14.2484 37.8012 14.8434 37.0378 15.3255L34.886 11.9184C35.2943 11.6605 35.6489 11.3489 35.9498 10.9835L36.5945 10.1776C37.4757 9.0815 37.6906 8.13586 37.2393 7.34067C36.788 6.54547 35.8638 6.14788 34.4669 6.14788H17.9612C17.0155 6.14788 16.1021 6.39503 15.221 6.88934C14.3613 7.36216 13.6843 8.00691 13.19 8.8236L6.67797 19.1719C5.92576 20.3754 5.74308 21.3426 6.12993 22.0733C6.53828 22.804 7.44093 23.1694 8.8379 23.1694H25.4081C26.3537 23.1694 27.2456 22.9222 28.0838 22.4279C28.7327 22.0452 29.2978 21.5724 29.7792 21.0094C29.8442 20.9335 29.9076 20.8559 29.9695 20.7767C30.0415 20.6845 30.1114 20.5902 30.1792 20.4936L31.6944 18.3337C31.9738 17.9254 32.0383 17.603 31.8878 17.3666C31.7589 17.1087 31.458 16.9797 30.9852 16.9797H23.4416C22.9688 16.9797 22.5174 17.1087 22.0876 17.3666C21.6792 17.6245 21.3354 17.9469 21.056 18.3337L19.6375 20.3647C19.2937 20.8613 18.8858 21.2108 18.4137 21.4132C18.4111 21.4143 18.4086 21.4154 18.406 21.4164C18.0834 21.5535 17.731 21.622 17.3486 21.622C16.36 21.622 16.1344 21.1921 16.6717 20.3325L23.7317 8.95255C24.0865 8.39913 24.5396 8.02841 25.0911 7.84039C25.0918 7.84017 25.0924 7.83996 25.0931 7.83974C25.3763 7.74343 25.6855 7.69528 26.0206 7.69528C26.7214 7.69528 27.0503 7.88871 27.0072 8.27556C27.0002 8.33814 26.9835 8.40578 26.9571 8.47849C26.9064 8.6179 26.8199 8.77592 26.6976 8.95255L25.3114 10.9513C25.1757 11.1391 25.0882 11.3118 25.0488 11.4692C25.0071 11.636 25.0194 11.7857 25.0857 11.9184C25.2361 12.1763 25.5478 12.3053 26.0206 12.3053H33.5642C34.037 12.3053 34.4776 12.1763 34.886 11.9184L37.0378 15.3255C36.6111 15.595 36.1597 15.8135 35.6891 15.9774C36.5579 18.1172 35.4197 20.0253 35.0202 20.6092L35.0069 20.6287L33.4763 22.8105C32.5873 24.0756 31.4625 25.1136 30.1308 25.899C28.6913 26.7479 27.0953 27.1991 25.4081 27.1991H8.8379C7.00029 27.1991 4.11971 26.7367 2.61222 24.0391L2.58992 23.9992Z" fill="#1F1F21"/>
<path d="M7.82021 42.0588C6.7886 42.0588 6.54145 41.6075 7.07874 40.7049L20.8442 18.6543C21.3815 17.7516 22.166 17.3003 23.1976 17.3003H30.7412C31.7728 17.3003 32.02 17.7516 31.4827 18.6543L28.3234 23.6834C27.8076 24.586 28.0547 25.0373 29.0648 25.0373H34.9321C36.8019 25.0373 37.9947 25.5316 38.5105 26.5203C39.0478 27.4874 38.8006 28.7769 37.769 30.3888L32.1597 39.3831C31.6654 40.1998 30.9884 40.8553 30.1287 41.3496C29.269 41.8224 28.3664 42.0588 27.4207 42.0588H7.82021ZM18.6843 39.2219C18.147 40.0816 18.3727 40.5114 19.3613 40.5114C20.3499 40.5114 21.1129 40.0923 21.6502 39.2542L28.7102 27.8743C29.2475 27.0146 29.0111 26.5847 28.001 26.5847C27.0339 26.5847 26.2817 27.0038 25.7444 27.842L18.6843 39.2219Z" fill="#1F1F21"/>
<path fill-rule="evenodd" clip-rule="evenodd" d="M3.63963 38.6073L17.4093 16.55C18.6597 14.4806 20.7327 13.2708 23.1994 13.2708H30.743C31.2448 13.2708 31.9569 13.3191 32.7108 13.5851C33.5029 13.8647 34.5634 14.4743 35.2365 15.7034C35.9022 16.919 35.8489 18.1211 35.6806 18.9064C35.5179 19.6658 35.2022 20.2872 34.9471 20.7156L34.9224 20.7571L34.7649 21.0078H34.9339C37.2218 21.0078 40.4567 21.5929 42.0605 24.6101C43.6874 27.594 42.3964 30.6293 41.1786 32.5397L35.5931 41.4958C34.7333 42.9064 33.5571 44.0278 32.1392 44.8432L32.106 44.8622L32.0725 44.8807C30.641 45.668 29.0732 46.0887 27.4225 46.0887H7.82198C7.32017 46.0887 6.60802 46.0404 5.85419 45.7744C5.06202 45.4948 4.00158 44.8852 3.32847 43.656C2.6628 42.4405 2.71608 41.2384 2.88437 40.4531C3.04709 39.6937 3.3628 39.0723 3.61781 38.6439L3.63963 38.6073ZM32.1614 39.3833L37.7708 30.389C38.8024 28.7771 39.0496 27.4876 38.5123 26.5204C37.9965 25.5318 36.8037 25.0375 34.9339 25.0375H29.0666C28.0565 25.0375 27.8093 24.5862 28.3252 23.6835L31.4844 18.6544C32.0217 17.7518 31.7746 17.3005 30.743 17.3005H23.1994C22.1678 17.3005 21.3833 17.7518 20.846 18.6544L7.08052 40.705C6.54322 41.6077 6.79038 42.059 7.82198 42.059H27.4225C28.3681 42.059 29.2708 41.8226 30.1305 41.3498C30.9901 40.8555 31.6671 40.2 32.1614 39.3833ZM28.712 27.8744C29.2493 27.0148 29.0129 26.5849 28.0028 26.5849C27.6221 26.5849 27.2746 26.6499 26.9605 26.7798C26.9579 26.7808 26.9553 26.7819 26.9527 26.783C26.4724 26.9836 26.0702 27.3367 25.7461 27.8422L18.6861 39.2221C18.1488 40.0818 18.3745 40.5116 19.3631 40.5116C19.7552 40.5116 20.1118 40.4457 20.4329 40.3138C20.4355 40.3128 20.4381 40.3117 20.4407 40.3106C20.9257 40.1095 21.3295 39.7574 21.652 39.2543L28.712 27.8744Z" fill="#1F1F21"/>
<path d="M35.1429 20.3992L40.1801 12.0879L35.017 14.7324L33.5059 20.3992H35.1429Z" fill="#1F1F21"/>
<path d="M8.45778 21.5547C7.06081 21.5547 6.15815 21.1893 5.74981 20.4586C5.36296 19.7279 5.54564 18.7608 6.29785 17.5572L12.8099 7.20893C13.3042 6.39224 13.9812 5.74749 14.8408 5.27467C15.722 4.78036 16.6354 4.5332 17.581 4.5332H34.0867C35.4837 4.5332 36.4078 4.9308 36.8592 5.726C37.3105 6.52119 37.0956 7.46683 36.2144 8.56291L35.5697 9.36886C35.2688 9.73422 34.9142 10.0458 34.5058 10.3038C34.0975 10.5617 33.6569 10.6906 33.1841 10.6906H25.6405C25.1676 10.6906 24.856 10.5617 24.7056 10.3038C24.5766 10.0458 24.6518 9.72347 24.9312 9.33662L26.3175 7.33788C26.8977 6.4997 26.6721 6.08061 25.6405 6.08061C24.6518 6.08061 23.8889 6.4997 23.3516 7.33788L16.2915 18.7178C15.7542 19.5775 15.9799 20.0073 16.9685 20.0073C17.9142 20.0073 18.6771 19.5882 19.2574 18.75L20.6759 16.7191C20.9553 16.3322 21.2991 16.0098 21.7075 15.7519C22.1373 15.494 22.5886 15.3651 23.0614 15.3651H30.6051C31.0779 15.3651 31.3788 15.494 31.5077 15.7519C31.6582 15.9883 31.5937 16.3107 31.3143 16.7191L29.7991 18.879C29.2403 19.6742 28.5419 20.3189 27.7037 20.8132C26.8655 21.3075 25.9736 21.5547 25.0279 21.5547H8.45778Z" fill="white"/>
<path d="M7.44326 40.4443C6.41165 40.4443 6.16449 39.993 6.70179 39.0904L20.4673 17.0398C21.0046 16.1371 21.789 15.6858 22.8206 15.6858H30.3642C31.3959 15.6858 31.643 16.1371 31.1057 17.0398L27.9464 22.0689C27.4306 22.9715 27.6778 23.4228 28.6879 23.4228H34.5552C36.4249 23.4228 37.6177 23.9171 38.1335 24.9058C38.6708 25.8729 38.4237 27.1624 37.3921 28.7743L31.7827 37.7686C31.2884 38.5853 30.6114 39.2408 29.7517 39.7351C28.8921 40.2079 27.9894 40.4443 27.0438 40.4443H7.44326ZM18.3074 37.6074C17.7701 38.4671 17.9957 38.8969 18.9843 38.8969C19.973 38.8969 20.7359 38.4778 21.2732 37.6397L28.3333 26.2598C28.8706 25.4001 28.6342 24.9702 27.624 24.9702C26.6569 24.9702 25.9047 25.3893 25.3674 26.2275L18.3074 37.6074Z" fill="white"/>
</svg>
